<svg id="visual" viewBox="0 0 1920 1080" width="1920" height="1080" xmlns="http://www.w3.org/2000/svg" xmlns:xlink="http://www.w3.org/1999/xlink" version="1.1"><path d="M962 0L926.8 13.8C891.7 27.7 821.3 55.3 751.7 83C682 110.7 613 138.3 631.8 166C650.7 193.7 757.3 221.3 767.8 249C778.3 276.7 692.7 304.3 688.3 332C684 359.7 761 387.3 817.8 415C874.7 442.7 911.3 470.3 902.5 498.2C893.7 526 839.3 554 836.3 581.8C833.3 609.7 881.7 637.3 889.8 665C898 692.7 866 720.3 854.7 748C843.3 775.7 852.7 803.3 858.2 831C863.7 858.7 865.3 886.3 846.3 914C827.3 941.7 787.7 969.3 754.2 997C720.7 1024.7 693.3 1052.3 679.7 1066.2L666 1080L0 1080L0 1066.2C0 1052.3 0 1024.7 0 997C0 969.3 0 941.7 0 914C0 886.3 0 858.7 0 831C0 803.3 0 775.7 0 748C0 720.3 0 692.7 0 665C0 637.3 0 609.7 0 581.8C0 554 0 526 0 498.2C0 470.3 0 442.7 0 415C0 387.3 0 359.7 0 332C0 304.3 0 276.7 0 249C0 221.3 0 193.7 0 166C0 138.3 0 110.7 0 83C0 55.3 0 27.7 0 13.8L0 0Z" fill="#245501" stroke-linecap="round" stroke-linejoin="miter"></path></svg>